<?xml version="1.0" standalone="no"?>
<!DOCTYPE svg PUBLIC "-//W3C//DTD SVG 20010904//EN"
 "http://www.w3.org/TR/2001/REC-SVG-20010904/DTD/svg10.dtd">
<svg version="1.0" xmlns="http://www.w3.org/2000/svg"
 width="900.000000pt" height="900.000000pt" viewBox="0 0 900.000000 900.000000"
 preserveAspectRatio="xMidYMid meet">

<g transform="translate(0.000000,900.000000) scale(0.100000,-0.100000)"
fill="#000000" stroke="none">
<path d="M4175 8990 c-417 -34 -848 -127 -1212 -260 -790 -291 -1458 -773
-1989 -1435 -100 -126 -309 -433 -386 -570 -303 -536 -492 -1119 -563 -1740
-35 -304 -30 -723 11 -1055 183 -1473 1109 -2782 2441 -3449 491 -246 987
-393 1538 -456 195 -22 575 -30 770 -16 915 65 1715 363 2434 907 722 544
1265 1302 1551 2164 144 433 215 844 227 1310 9 357 -16 645 -87 1000 -206
1036 -767 1954 -1605 2627 -134 108 -438 315 -580 395 -535 303 -1116 491
-1740 563 -165 19 -647 28 -810 15z m603 -501 c1701 -121 3127 -1291 3582
-2937 285 -1033 128 -2181 -426 -3102 -180 -300 -350 -517 -603 -771 -406
-405 -847 -697 -1367 -903 -537 -212 -1160 -307 -1742 -265 -832 59 -1577 353
-2249 887 -149 118 -457 429 -587 592 -463 581 -755 1260 -850 1980 -240 1810
774 3555 2464 4238 563 227 1177 325 1778 281z"/>
<path d="M4270 7994 c-19 -2 -84 -9 -145 -15 -569 -56 -1178 -287 -1651 -625
-300 -214 -611 -525 -824 -823 -348 -488 -553 -1027 -632 -1661 -17 -140 -17
-601 0 -745 30 -240 89 -513 156 -717 374 -1139 1310 -2010 2473 -2302 300
-75 516 -101 853 -101 339 0 560 27 872 106 972 245 1809 921 2258 1824 191
384 296 741 352 1195 17 140 17 601 0 745 -99 812 -422 1495 -977 2064 -570
585 -1260 927 -2090 1037 -104 14 -568 27 -645 18z m475 -504 c921 -78 1753
-571 2260 -1340 414 -628 577 -1396 454 -2138 -130 -786 -556 -1474 -1204
-1944 -864 -627 -2011 -743 -2991 -301 -660 297 -1202 839 -1498 1499 -572
1275 -196 2766 913 3618 580 446 1336 667 2066 606z"/>
<path d="M4250 6989 c-1145 -124 -2053 -993 -2225 -2129 -22 -148 -30 -429
-16 -580 56 -593 307 -1127 725 -1546 387 -386 864 -627 1406 -709 148 -22
429 -30 580 -16 593 56 1127 307 1546 725 386 387 627 864 709 1406 22 148 30
429 16 580 -47 489 -235 960 -538 1340 -89 113 -275 298 -393 392 -343 274
-760 455 -1200 523 -125 19 -487 28 -610 14z m448 -499 c456 -49 864 -239
1191 -554 620 -599 786 -1527 411 -2304 -106 -220 -231 -392 -406 -562 -176
-170 -321 -272 -537 -375 -687 -328 -1492 -237 -2102 240 -90 71 -268 250
-336 340 -82 107 -150 217 -215 350 -271 551 -271 1198 0 1750 302 614 880
1026 1556 1110 132 16 312 18 438 5z"/>
</g>
</svg>
